<svg xmlns="http://www.w3.org/2000/svg" width="40" height="40" viewBox="0 0 40 40">
    <g id="prefix__Group_350" data-name="Group 350" transform="translate(-8985 -5413)">
        <g id="prefix__Group_340" data-name="Group 340" transform="translate(8498 3850)">
            <circle id="prefix__Ellipse_359" cx="20" cy="20" r="20" data-name="Ellipse 359" transform="translate(487 1563)" style="fill:rgba(8,8,8,.69)"/>
        </g>
        <path id="prefix__Icon_material-call-end" d="M12.5 7.5a19.122 19.122 0 0 0-4.792.6v2.583a.845.845 0 0 1-.583.75 12.414 12.414 0 0 0-2.771 1.542 1.17 1.17 0 0 1-.729.233 1.184 1.184 0 0 1-.74-.242L.3 10.9a.728.728 0 0 1-.3-.583.756.756 0 0 1 .3-.592 20.238 20.238 0 0 1 12.2-3.892 20.238 20.238 0 0 1 12.2 3.892.73.73 0 0 1 0 1.183l-2.583 2.067a1.184 1.184 0 0 1-.74.242 1.223 1.223 0 0 1-.729-.233 12.166 12.166 0 0 0-2.781-1.542.836.836 0 0 1-.583-.75V8.108A18.6 18.6 0 0 0 12.5 7.5z" data-name="Icon material-call-end" transform="translate(8993 5423.475)" style="fill:#f53c56"/>
    </g>
</svg>
