<svg xmlns="http://www.w3.org/2000/svg" width="40" height="40" viewBox="0 0 40 40">
    <g id="prefix__Group_348" data-name="Group 348" transform="translate(-8881 -5371)">
        <g id="prefix__Group_347" data-name="Group 347">
            <g id="prefix__Group_344" data-name="Group 344">
                <g id="prefix__Group_343" data-name="Group 343" transform="translate(50)">
                    <g id="prefix__Group_341" data-name="Group 341">
                        <g id="prefix__Group_340" data-name="Group 340" transform="translate(8344 3808)">
                            <circle id="prefix__Ellipse_359" cx="20" cy="20" r="20" data-name="Ellipse 359" transform="translate(487 1563)" style="fill:rgba(8,8,8,.69)"/>
                        </g>
                    </g>
                </g>
                <path id="prefix__Icon_awesome-microphone" d="M5.74 12.559a3.288 3.288 0 0 0 3.131-3.425V3.425A3.288 3.288 0 0 0 5.74 0a3.288 3.288 0 0 0-3.131 3.425v5.709a3.288 3.288 0 0 0 3.131 3.425zm5.218-5.709h-.522a.548.548 0 0 0-.522.571v1.713a4.343 4.343 0 0 1-4.592 4.545 4.589 4.589 0 0 1-3.756-4.748v-1.51a.548.548 0 0 0-.522-.571H.522A.548.548 0 0 0 0 7.421v1.433c0 3.2 2.086 6.05 4.957 6.483v1.218H3.131a.548.548 0 0 0-.522.571v.574a.548.548 0 0 0 .522.571h5.218a.548.548 0 0 0 .522-.571v-.571a.548.548 0 0 0-.522-.571H6.523v-1.2a6.127 6.127 0 0 0 4.957-6.224V7.421a.548.548 0 0 0-.521-.57z" data-name="Icon awesome-microphone" transform="translate(8895.063 5382)" style="fill:#fbfbfb"/>
            </g>
        </g>
    </g>
</svg>
