<svg xmlns="http://www.w3.org/2000/svg" width="40" height="40" viewBox="0 0 40 40">
    <g id="prefix__Group_346" data-name="Group 346" transform="translate(-8881 -5371)">
        <g id="prefix__Group_343" data-name="Group 343" transform="translate(50)">
            <g id="prefix__Group_341" data-name="Group 341">
                <g id="prefix__Group_340" data-name="Group 340" transform="translate(8344 3808)">
                    <circle id="prefix__Ellipse_359" cx="20" cy="20" r="20" data-name="Ellipse 359" transform="translate(487 1563)" style="fill:rgba(8,8,8,.69)"/>
                </g>
            </g>
        </g>
        <path id="prefix__Icon_awesome-microphone-slash" d="M20.126 16.49l-5.011-4.39a6.854 6.854 0 0 0 .634-2.885V7.487a.545.545 0 0 0-.508-.576h-.508a.545.545 0 0 0-.508.576v1.728a4.99 4.99 0 0 1-.34 1.807l-.843-.739a3.8 3.8 0 0 0 .168-1.068V3.456A3.271 3.271 0 0 0 10.161 0a3.271 3.271 0 0 0-3.048 3.456v1.632L1.444.121a.469.469 0 0 0-.713.1l-.624.91A.629.629 0 0 0 .2 1.94l18.679 16.369a.469.469 0 0 0 .713-.1l.624-.91a.629.629 0 0 0-.09-.808zm-7.426.21h-1.777v-1.214a5 5 0 0 0 1.069-.3L10.4 13.793a3.614 3.614 0 0 1-.646.007 4.355 4.355 0 0 1-3.53-3.666L4.573 8.686v.247c0 3.227 2.031 6.1 4.827 6.54V16.7H7.621a.545.545 0 0 0-.508.576v.576a.545.545 0 0 0 .508.576H12.7a.545.545 0 0 0 .508-.576v-.576a.545.545 0 0 0-.508-.576z" data-name="Icon awesome-microphone-slash" transform="translate(8890.5 5382)" style="fill:#fbfbfb"/>
    </g>
</svg>
